<svg width="137" height="111" viewBox="0 0 137 111" fill="none" xmlns="http://www.w3.org/2000/svg">
<g id="certificate">
<path id="Vector" fill-rule="evenodd" clip-rule="evenodd" d="M136.002 3.23909C136.002 1.45104 134.55 0 132.764 0H3.23758C1.45104 0 0 1.45108 0 3.23909V106.856C0 108.644 1.45108 110.095 3.23758 110.095H132.764C134.551 110.095 136.002 108.644 136.002 106.856V3.23909ZM129.525 6.47667V103.62H6.47982V6.47667H129.525ZM48.5738 77.7135H22.6685C20.8819 77.7135 19.4309 79.1646 19.4309 80.9526C19.4309 82.7391 20.882 84.1901 22.6685 84.1901H48.5738C50.3618 84.1901 51.8113 82.7391 51.8113 80.9526C51.8113 79.1645 50.3618 77.7135 48.5738 77.7135ZM84.1933 56.0704V80.9526C84.1933 82.0728 84.7762 83.1155 85.7279 83.7045C86.6856 84.2934 87.8771 84.3526 88.882 83.8471L100.383 78.0959L111.885 83.8471C112.889 84.3526 114.08 84.2934 115.04 83.7045C115.991 83.1155 116.574 82.0728 116.574 80.9526V56.0704C118.62 52.9937 119.812 49.3023 119.812 45.333C119.812 34.6077 111.108 25.9045 100.383 25.9045C89.6593 25.9045 80.9545 34.6077 80.9545 45.333C80.9545 49.3023 82.1458 52.9937 84.1933 56.0704ZM90.6685 62.1586V75.7131L98.9334 71.5814C99.8456 71.1215 100.92 71.1215 101.834 71.5814L110.097 75.7131V62.1586C107.242 63.8161 103.92 64.7617 100.383 64.7617C96.848 64.7617 93.5253 63.8161 90.6685 62.1586ZM68.0023 64.7617H22.6677C20.8812 64.7617 19.4301 66.2128 19.4301 67.9993C19.4301 69.7873 20.8812 71.2383 22.6677 71.2383H68.0023C69.7904 71.2383 71.2399 69.7873 71.2399 67.9993C71.2399 66.2127 69.7904 64.7617 68.0023 64.7617ZM100.383 32.3812C107.533 32.3812 113.336 38.1842 113.336 45.3331C113.336 52.482 107.533 58.285 100.383 58.285C93.2338 58.285 87.4309 52.482 87.4309 45.3331C87.4309 38.1842 93.2338 32.3812 100.383 32.3812ZM68.0023 51.8098H22.6677C20.8812 51.8098 19.4301 53.2594 19.4301 55.0474C19.4301 56.8354 20.8812 58.285 22.6677 58.285H68.0023C69.7904 58.285 71.2399 56.8354 71.2399 55.0474C71.2399 53.2594 69.7904 51.8098 68.0023 51.8098ZM68.0023 38.8564H22.6677C20.8812 38.8564 19.4301 40.3075 19.4301 42.0955C19.4301 43.882 20.8812 45.3331 22.6677 45.3331H68.0023C69.7904 45.3331 71.2399 43.882 71.2399 42.0955C71.2399 40.3074 69.7904 38.8564 68.0023 38.8564ZM68.0023 25.9045H22.6677C20.8812 25.9045 19.4301 27.3556 19.4301 29.1421C19.4301 30.9302 20.8812 32.3812 22.6677 32.3812H68.0023C69.7904 32.3812 71.2399 30.9301 71.2399 29.1421C71.2399 27.3556 69.7904 25.9045 68.0023 25.9045Z" fill="#64C7CC"/>
</g>
</svg>
