<svg width="32" height="32" viewBox="0 0 32 32" fill="none" xmlns="http://www.w3.org/2000/svg">
<g id="check mark">
<path id="Vector" d="M16 0C7.16318 0 0 7.16444 0 16.0013C0 24.8375 7.16318 32 16 32C24.8368 32 32 24.8368 32 16.0013C32 7.16508 24.8368 0 16 0ZM22.5606 9.50222C23.1546 9.48437 23.7305 9.70808 24.1571 10.1218C24.5837 10.5357 24.8246 11.1046 24.8248 11.6989C24.8251 12.2932 24.5848 12.8623 24.1587 13.2766L15.6215 21.815C15.217 22.3869 14.5643 22.7317 13.8641 22.7438C13.8569 22.745 13.8499 22.7463 13.8427 22.7473H13.814C13.086 22.7584 12.4 22.4085 11.9814 21.813L7.84152 17.6731C7.42064 17.2644 7.18031 16.7043 7.1746 16.1178C7.16865 15.531 7.39756 14.9663 7.81028 14.5491C8.22298 14.1322 8.78546 13.8973 9.37231 13.897C9.96706 13.8968 10.5365 14.1374 10.9509 14.5642L13.8026 17.4157L21.0496 10.1687H21.0493C21.4476 9.75895 21.9896 9.52035 22.5608 9.50327L22.5606 9.50222Z" fill="#E6A76E"/>
</g>
</svg>
