<svg width="62" height="62" viewBox="0 0 62 62" fill="none" xmlns="http://www.w3.org/2000/svg">
<g id="home">
<path id="Vector" d="M59.4086 59.4181H58.1168V25.8343C59.1954 25.6924 60.1845 25.1613 60.8985 24.3405C61.6121 23.5197 62.0009 22.4657 61.9918 21.3781C61.9918 18.3296 59.5505 17.3223 56.825 15.5397V5.16809C56.825 4.82556 56.6892 4.49689 56.4471 4.2547C56.2044 4.01252 55.8762 3.87628 55.5337 3.87628H47.7837C47.0701 3.87628 46.4919 4.45451 46.4919 5.16809V8.86226L34.5183 1.04745C33.4691 0.363704 32.2439 0 30.9918 0C29.7398 0 28.5146 0.363715 27.4654 1.04745L2.04563 17.619C1.01547 18.2976 0.304883 19.3657 0.077921 20.5784C-0.149562 21.7906 0.125925 23.0435 0.84037 24.049C1.55481 25.055 2.64721 25.727 3.86683 25.9117V59.4168H2.57503C1.86188 59.4168 1.28367 59.9951 1.28367 60.7082C1.28367 61.4218 1.86189 62 2.57503 62H59.4086C60.1217 62 60.7 61.4218 60.7 60.7082C60.7 59.995 60.1217 59.4168 59.4086 59.4168L59.4086 59.4181ZM49.0751 6.45945H54.2419V13.9122L49.0751 10.5411V6.45945ZM2.57551 21.4301C2.57551 19.9191 1.49043 21.0815 28.8744 3.21776C29.504 2.80648 30.2401 2.58722 30.9926 2.58722C31.7451 2.58722 32.4812 2.80648 33.1109 3.21776L58.5174 19.7893C59.1012 20.1699 59.4373 20.8333 59.3997 21.5292C59.3616 22.225 58.9555 22.8478 58.334 23.1631C57.7126 23.4784 56.97 23.4377 56.3861 23.0571L31.7026 6.96275C30.6694 6.29111 32.1935 5.67094 5.59752 23.0571C5.20397 23.3162 4.72955 23.4239 4.26243 23.3603C3.79531 23.2967 3.36721 23.0662 3.05665 22.7112C2.74657 22.3561 2.5753 21.9011 2.57487 21.4298L2.57551 21.4301ZM19.3674 46.5011H16.7842V24.5434C16.7916 24.0231 17.1099 23.5582 17.5921 23.3636C18.0747 23.169 18.6266 23.2827 18.9928 23.6521C19.5352 24.1689 19.3674 22.7219 19.3674 46.5011ZM21.9506 49.0843C22.2931 49.0843 22.6218 49.2205 22.8639 49.4627C23.1061 49.7049 23.2424 50.0336 23.2424 50.3761V51.6679H12.9093V50.3761C12.9093 49.6629 13.4875 49.0843 14.2006 49.0843H21.9506ZM11.8502 59.4178L12.7156 54.2511H23.4362L24.3015 59.4178H11.8502ZM49.0753 40.043C49.7889 40.0927 50.3265 40.7116 50.2768 41.4247C50.2266 42.1383 49.6082 42.6759 48.8946 42.6262H41.3255V40.043H49.0753ZM38.7422 46.5011H34.8673V38.7512H38.7422V46.5011ZM32.2841 42.6262H28.4091C27.6956 42.6262 27.1173 42.0479 27.1173 41.3344C27.1173 40.6212 27.6956 40.043 28.4091 40.043H32.2841V42.6262ZM31.9096 59.4181C31.2345 59.4202 30.6718 58.9021 30.6178 58.2297L29.6231 45.2098H32.2841V47.7934C32.2841 48.1359 32.4199 48.4641 32.6621 48.7068C32.9047 48.9489 33.2329 49.0847 33.5755 49.0847H40.034C40.3765 49.0847 40.7048 48.9489 40.9474 48.7068C41.1896 48.4641 41.3254 48.1359 41.3254 47.7934V45.2098H47.4994L46.4922 58.2297C46.4381 58.9021 45.8755 59.4203 45.2004 59.4181H31.9096ZM48.8432 59.4181C49.1273 58.6431 48.9855 59.5988 50.135 45.0552H50.1346C51.336 44.7049 52.2943 43.7963 52.7073 42.6152C53.1208 41.4341 52.9382 40.1264 52.2177 39.1035C51.4968 38.0803 50.327 37.4683 49.0754 37.4601H40.9638C39.9821 35.7808 38.3807 36.1683 34.8673 36.1683V36.1687C33.95 36.1739 33.1045 36.6656 32.6457 37.46H28.4092C27.2004 37.4691 26.0652 38.0417 25.3394 39.0083C24.6137 39.9748 24.3802 41.2247 24.7089 42.388C25.0376 43.5513 25.89 44.4945 27.0139 44.9387L28.0471 58.4236C28.1505 59.7154 28.8481 59.4183 26.9236 59.4183C25.6318 51.5391 25.8255 53.6832 25.8255 50.3766C25.8255 49.349 25.4173 48.3634 24.6907 47.6364C23.9642 46.9099 22.9785 46.5016 21.9506 46.5016V24.5438C21.9506 23.1595 21.2123 21.8802 20.0131 21.1879C18.8143 20.4959 17.3374 20.4959 16.1381 21.1879C14.9393 21.8803 14.2006 23.1596 14.2006 24.5438V46.5016C13.1731 46.5016 12.1874 46.9099 11.4609 47.6364C10.7339 48.3634 10.3257 49.349 10.3257 50.3766C10.3257 53.6832 10.5454 51.5391 9.22762 59.4183H6.45071C6.45071 21.7404 6.2055 25.7449 7.00601 25.2278L30.992 9.58514L54.9781 25.2278C55.766 25.7446 55.5334 21.7014 55.5334 59.4183L48.8432 59.4181Z" fill="#64C7CC"/>
</g>
</svg>
