<svg width="59" height="59" viewBox="0 0 59 59" fill="none" xmlns="http://www.w3.org/2000/svg">
<g id="noun-cleaning-3898575 1">
<g id="Group">
<path id="Vector" d="M18.3187 17.7522C18.7098 17.7522 19.0265 17.4351 19.0265 17.044V16.185H19.8858C20.2766 16.185 20.5937 15.868 20.5937 15.4772C20.5937 15.086 20.2766 14.769 19.8858 14.769H19.0265V13.91C19.0265 13.5192 18.7098 13.2021 18.3187 13.2021C17.9275 13.2021 17.6108 13.5192 17.6108 13.91V14.769H16.7564C16.3653 14.769 16.0482 15.086 16.0482 15.4772C16.0482 15.868 16.3653 16.185 16.7564 16.185H17.6154V17.044C17.6154 17.4331 17.9295 17.7495 18.3187 17.7522Z" fill="white"/>
<path id="Vector_2" d="M43.8016 22.8921H42.9427V22.0328C42.9427 21.642 42.6256 21.325 42.2348 21.325C41.8437 21.325 41.5266 21.642 41.5266 22.0328V22.8921H40.6676C40.2765 22.8921 39.9598 23.2088 39.9598 23.6C39.9598 23.9911 40.2765 24.3078 40.6676 24.3078H41.5266V25.1671C41.5266 25.5579 41.8437 25.875 42.2348 25.875C42.6256 25.875 42.9427 25.5579 42.9427 25.1671V24.3078H43.8016C44.1927 24.3078 44.5095 23.9911 44.5095 23.6C44.5095 23.2088 44.1927 22.8921 43.8016 22.8921Z" fill="white"/>
<path id="Vector_3" d="M38.1426 36.3862H37.2837V35.5272C37.2837 35.1361 36.9666 34.8193 36.5758 34.8193C36.1847 34.8193 35.8676 35.1361 35.8676 35.5272V36.3862H35.0087C34.6175 36.3862 34.3008 36.7032 34.3008 37.0944C34.3008 37.4852 34.6175 37.8022 35.0087 37.8022H35.8676V38.6612C35.8676 39.0523 36.1847 39.3694 36.5758 39.3694C36.9666 39.3694 37.2837 39.0523 37.2837 38.6612V37.8022H38.1426C38.5338 37.8022 38.8508 37.4852 38.8508 37.0944C38.8508 36.7032 38.5338 36.3862 38.1426 36.3862Z" fill="white"/>
<path id="Vector_4" d="M27.5505 13.2827C27.9416 13.2827 28.2587 12.9656 28.2587 12.5745V11.7155H29.1176C29.5084 11.7155 29.8255 11.3985 29.8255 11.0077C29.8255 10.6165 29.5084 10.2995 29.1176 10.2995H28.2587V9.44053C28.2587 9.04939 27.9416 8.73267 27.5505 8.73267C27.1597 8.73267 26.8426 9.04939 26.8426 9.44053V10.2995H25.9836C25.5925 10.2995 25.2755 10.6165 25.2755 11.0077C25.2755 11.3985 25.5925 11.7155 25.9836 11.7155H26.8426V12.5745C26.8426 12.9656 27.1597 13.2827 27.5505 13.2827Z" fill="white"/>
<path id="Vector_5" d="M48.4179 2.39296C48.1414 2.11706 47.6936 2.11706 47.417 2.39296L31.1238 18.6862L30.779 18.3415L30.7366 18.3132L30.6799 18.2707L30.6138 18.2378L30.5476 18.2095H30.137L30.0425 18.2424H30.0047L30.005 18.2428C29.9717 18.2586 29.9405 18.2776 29.9105 18.2994H29.8822C29.8443 18.3287 29.8094 18.3619 29.7785 18.3985C28.9939 19.244 28.1076 19.989 27.1399 20.6169C21.9902 24.1852 13.3289 26.6868 8.62318 27.8477C8.37461 27.9089 8.17838 28.0992 8.1099 28.3458C8.04142 28.5924 8.11122 28.8568 8.29263 29.0372L12.8332 33.5778L19.5122 40.266L24.0527 44.8066V44.8069C24.1851 44.9399 24.3652 45.015 24.5532 45.0143C24.6167 45.014 24.6802 45.0061 24.7418 44.9909C24.9924 44.9241 25.1873 44.7272 25.2518 44.4763C26.4223 39.7563 28.9238 31.1095 32.4921 25.9503C33.1302 24.9978 33.8812 24.126 34.7293 23.3546C34.7659 23.3233 34.7991 23.2887 34.8284 23.2505V23.2222C34.8531 23.1939 34.8739 23.162 34.89 23.1277V23.0899V23.0902C34.9032 23.0593 34.914 23.028 34.9229 22.9957V22.9486C34.9252 22.917 34.9252 22.8854 34.9229 22.8541V22.8117C34.9252 22.7817 34.9252 22.7517 34.9229 22.7221V22.6701C34.9203 22.6421 34.912 22.6148 34.8992 22.5898V22.5331C34.887 22.5084 34.8729 22.4847 34.8567 22.4623L34.8238 22.4103C34.8238 22.4103 34.8238 22.3774 34.7909 22.3632L34.4462 22.0185L50.7066 5.66373C50.8402 5.5317 50.9156 5.35161 50.9156 5.16361C50.9156 4.97561 50.8403 4.79519 50.7066 4.66316L48.4179 2.39296ZM24.1757 42.9521L21.0037 39.766L22.7125 38.0573C22.8531 37.9263 22.9344 37.7438 22.9377 37.5519C22.941 37.3596 22.8662 37.1746 22.7302 37.0386C22.5946 36.903 22.4092 36.8282 22.2173 36.8315C22.0254 36.8348 21.8426 36.9161 21.7119 37.0567L20.0127 38.7655L17.6764 36.4055L20.4611 33.6207V33.6204C20.7209 33.3415 20.7133 32.9069 20.4437 32.6373C20.174 32.3677 19.7394 32.3601 19.4602 32.6199L16.6755 35.4046L14.3155 33.0446L16.0242 31.3358V31.3362C16.1579 31.2038 16.2333 31.0237 16.2333 30.8357C16.2333 30.6477 16.1579 30.4676 16.0242 30.3353C15.7467 30.062 15.3009 30.062 15.0233 30.3353L13.3337 32.0961L10.1713 28.9337C15.6982 27.4943 22.7214 25.2284 27.4608 22.1181L30.9913 25.6486C27.8809 30.3778 25.6151 37.4014 24.1757 42.9524L24.1757 42.9521ZM33.1909 22.8736L33.1155 22.9539C32.936 23.1396 32.7566 23.3332 32.5775 23.5343L32.5396 23.5768C32.3602 23.7892 32.1761 24.0157 31.9921 24.2518L31.8976 24.3792L31.8127 24.4829L28.6407 21.2873C28.6733 21.258 28.7079 21.2313 28.7445 21.2073L28.8719 21.1082C29.1079 20.9241 29.344 20.7401 29.5468 20.556L29.5847 20.5231C29.7875 20.3486 29.9811 20.1692 30.1701 19.9851L30.2504 19.9048L30.2975 19.8623L33.238 22.8028V22.8025C33.2235 22.8196 33.2077 22.8351 33.1909 22.8499L33.1909 22.8736ZM33.4128 20.9857L32.7708 20.3391L32.1241 19.6971L47.9075 3.89433L49.2056 5.1925L33.4128 20.9857Z" fill="white"/>
</g>
</g>
</svg>
