<svg width="50" height="50" viewBox="0 0 50 50" fill="none" xmlns="http://www.w3.org/2000/svg">
<g id="noun-cleaning-3898575 1">
<g id="Group">
<path id="Vector" d="M15.5243 15.0442C15.8558 15.0442 16.1242 14.7755 16.1242 14.444V13.7161H16.8524C17.1836 13.7161 17.4523 13.4474 17.4523 13.1162C17.4523 12.7847 17.1836 12.516 16.8524 12.516H16.1242V11.7881C16.1242 11.4569 15.8558 11.1882 15.5243 11.1882C15.1928 11.1882 14.9244 11.4569 14.9244 11.7881V12.516H14.2003C13.8689 12.516 13.6002 12.7847 13.6002 13.1162C13.6002 13.4474 13.8689 13.7161 14.2003 13.7161H14.9283V14.444C14.9283 14.7738 15.1945 15.042 15.5243 15.0442Z" fill="#64C7CC"/>
<path id="Vector_2" d="M37.12 19.3999H36.3921V18.6717C36.3921 18.3405 36.1234 18.0718 35.7922 18.0718C35.4607 18.0718 35.192 18.3405 35.192 18.6717V19.3999H34.4641C34.1326 19.3999 33.8642 19.6683 33.8642 19.9998C33.8642 20.3312 34.1326 20.5996 34.4641 20.5996H35.192V21.3279C35.192 21.6591 35.4607 21.9277 35.7922 21.9277C36.1234 21.9277 36.3921 21.6591 36.3921 21.3279V20.5996H37.12C37.4515 20.5996 37.7199 20.3312 37.7199 19.9998C37.7199 19.6683 37.4515 19.3999 37.12 19.3999Z" fill="#64C7CC"/>
<path id="Vector_3" d="M32.3243 30.8356H31.5963V30.1077C31.5963 29.7762 31.3277 29.5078 30.9965 29.5078C30.665 29.5078 30.3963 29.7762 30.3963 30.1077V30.8356H29.6684C29.3369 30.8356 29.0685 31.1043 29.0685 31.4358C29.0685 31.767 29.3369 32.0357 29.6684 32.0357H30.3963V32.7636C30.3963 33.0951 30.665 33.3638 30.9965 33.3638C31.3277 33.3638 31.5963 33.0951 31.5963 32.7636V32.0357H32.3243C32.6557 32.0357 32.9244 31.767 32.9244 31.4358C32.9244 31.1043 32.6557 30.8356 32.3243 30.8356Z" fill="#64C7CC"/>
<path id="Vector_4" d="M23.3478 11.2563C23.6793 11.2563 23.948 10.9877 23.948 10.6562V9.92826H24.6759C25.0071 9.92826 25.2758 9.65956 25.2758 9.32837C25.2758 8.9969 25.0071 8.72821 24.6759 8.72821H23.948V8.00028C23.948 7.6688 23.6793 7.40039 23.3478 7.40039C23.0166 7.40039 22.748 7.6688 22.748 8.00028V8.72821H22.02C21.6886 8.72821 21.4199 8.9969 21.4199 9.32837C21.4199 9.65956 21.6886 9.92826 22.02 9.92826H22.748V10.6562C22.748 10.9877 23.0166 11.2563 23.3478 11.2563Z" fill="#64C7CC"/>
<path id="Vector_5" d="M41.0321 2.0279C40.7978 1.79409 40.4183 1.79409 40.1839 2.0279L26.3761 15.8358L26.0839 15.5436L26.048 15.5196L26 15.4836L25.9439 15.4557L25.8878 15.4317H25.5399L25.4598 15.4596H25.4277L25.428 15.4599C25.3998 15.4733 25.3733 15.4895 25.3479 15.5079H25.3239C25.2918 15.5327 25.2622 15.5609 25.236 15.5919C24.5711 16.3084 23.82 16.9398 22.9999 17.4719C18.6358 20.4959 11.2956 22.6159 7.30779 23.5997C7.09713 23.6516 6.93084 23.8129 6.8728 24.0218C6.81477 24.2308 6.87392 24.4549 7.02766 24.6078L10.8756 28.4557L16.5357 34.1237L20.3837 37.9716V37.9719C20.4958 38.0846 20.6484 38.1483 20.8078 38.1477C20.8616 38.1474 20.9155 38.1407 20.9676 38.1279C21.18 38.0712 21.3452 37.9044 21.3998 37.6918C22.3918 33.6918 24.5117 26.3639 27.5357 21.9918C28.0764 21.1846 28.7128 20.4457 29.4316 19.792C29.4626 19.7655 29.4908 19.7362 29.5156 19.7038V19.6798C29.5365 19.6558 29.5541 19.6288 29.5678 19.5997V19.5677V19.5679C29.579 19.5417 29.5882 19.5152 29.5957 19.4879V19.448C29.5976 19.4212 29.5976 19.3944 29.5957 19.3679V19.3319C29.5976 19.3065 29.5976 19.2811 29.5957 19.256V19.2119C29.5935 19.1882 29.5865 19.165 29.5756 19.1438V19.0958C29.5653 19.0749 29.5533 19.0548 29.5396 19.0359L29.5117 18.9918C29.5117 18.9918 29.5117 18.9639 29.4838 18.9519L29.1917 18.6597L42.9717 4.79973C43.085 4.68785 43.1489 4.53523 43.1489 4.37591C43.1489 4.21658 43.085 4.06368 42.9717 3.9518L41.0321 2.0279ZM20.4879 36.4L17.7998 33.7L19.2479 32.2519C19.367 32.1409 19.4359 31.9863 19.4387 31.8236C19.4415 31.6607 19.3782 31.5039 19.2629 31.3886C19.148 31.2737 18.9909 31.2103 18.8282 31.2131C18.6656 31.2159 18.5107 31.2848 18.3999 31.404L16.9599 32.852L14.98 30.852L17.3399 28.4921V28.4918C17.5601 28.2555 17.5537 27.8872 17.3251 27.6587C17.0966 27.4302 16.7283 27.4238 16.4917 27.6439L14.1318 30.0038L12.1318 28.0038L13.5799 26.5558V26.556C13.6931 26.4439 13.757 26.2913 13.757 26.1319C13.757 25.9726 13.6931 25.82 13.5799 25.7078C13.3446 25.4762 12.9669 25.4762 12.7316 25.7078L11.2997 27.2L8.61971 24.52C13.3036 23.3002 19.2554 21.38 23.2719 18.7441L26.2638 21.736C23.6279 25.7438 21.7077 31.696 20.4879 36.4003L20.4879 36.4ZM28.1279 19.3843L28.064 19.4524C27.9119 19.6098 27.7598 19.7738 27.608 19.9443L27.576 19.9803C27.4239 20.1603 27.2679 20.3522 27.112 20.5523L27.0319 20.6603L26.9599 20.7482L24.2718 18.04C24.2994 18.0152 24.3287 17.9926 24.3597 17.9722L24.4677 17.8882C24.6677 17.7323 24.8678 17.5763 25.0397 17.4203L25.0718 17.3924C25.2436 17.2445 25.4077 17.0925 25.5679 16.9365L25.6359 16.8684L25.6758 16.8324L28.1678 19.3244V19.3241C28.1555 19.3386 28.1421 19.3517 28.1279 19.3643L28.1279 19.3843ZM28.3159 17.7845L27.7718 17.2365L27.2238 16.6924L40.5995 3.30025L41.6997 4.40039L28.3159 17.7845Z" fill="#64C7CC"/>
</g>
</g>
</svg>
