<svg width="62" height="62" viewBox="0 0 62 62" fill="none" xmlns="http://www.w3.org/2000/svg">
<g id="office">
<path id="Vector" d="M45.2391 20.9178H39.9451C38.2842 20.9178 36.9321 19.7725 36.9321 18.3657V9.74277C36.9321 8.33592 38.2842 7.19067 39.9451 7.19067H45.2391C46.9 7.19067 48.252 8.33594 48.252 9.74277V18.3657C48.2526 19.7725 46.9005 20.9178 45.2391 20.9178ZM39.9455 9.53555C39.8153 9.53555 39.7015 9.63143 39.7015 9.74225V18.3652C39.7015 18.4755 39.8147 18.5719 39.9455 18.5719H45.2395C45.3698 18.5719 45.4835 18.476 45.4835 18.3652V9.74274C45.4835 9.63241 45.3703 9.53605 45.2395 9.53605H39.9455V9.53555ZM28.6795 37.3581H23.3856C21.7246 37.3581 20.3726 36.2143 20.3726 34.8064V26.1834C20.3726 24.7756 21.7247 23.6313 23.3856 23.6313H28.6795C30.3404 23.6313 31.6925 24.7756 31.6925 26.1834V34.8064C31.6925 36.2142 30.3404 37.3581 28.6795 37.3581ZM23.3856 25.9763C23.2525 25.9763 23.1415 26.0717 23.1415 26.1835V34.8064C23.1415 34.9168 23.2547 35.0136 23.3856 35.0136H28.6795C28.8098 35.0136 28.9235 34.9168 28.9235 34.8064L28.923 26.1835C28.923 26.0717 28.8115 25.9763 28.6789 25.9763H23.3856ZM45.2385 37.3581H39.9445C38.2836 37.3581 36.9315 36.2143 36.9315 34.8064V26.1834C36.9315 24.7756 38.2836 23.6313 39.9445 23.6313H45.2385C46.8994 23.6313 48.2515 24.7756 48.2515 26.1834V34.8064C48.252 36.2142 46.8999 37.3581 45.2385 37.3581ZM39.945 25.9763C39.8119 25.9763 39.7009 26.0717 39.7009 26.1835V34.8064C39.7009 34.9168 39.8141 35.0136 39.945 35.0136H45.2389C45.3692 35.0136 45.4829 34.9168 45.4829 34.8064V26.1835C45.4829 26.0717 45.3715 25.9763 45.2389 25.9763H39.945ZM28.6789 20.9173H23.385C21.724 20.9173 20.372 19.772 20.372 18.3652V9.74228C20.372 8.33542 21.7241 7.19018 23.385 7.19018H28.6789C30.3398 7.19018 31.6919 8.33545 31.6919 9.74228V18.3652C31.6919 19.7721 30.3398 20.9173 28.6789 20.9173ZM23.385 9.53506C23.2547 9.53506 23.1409 9.63094 23.1409 9.74176V18.3647C23.1409 18.475 23.2541 18.5714 23.385 18.5714H28.6789C28.8092 18.5714 28.923 18.4755 28.923 18.3647L28.9224 9.74225C28.9224 9.63192 28.8092 9.53555 28.6784 9.53555H23.3848L23.385 9.53506ZM39.7073 52.683V49.5802C39.7073 49.3108 39.4474 49.0911 39.13 49.0911H37.5446C37.2267 49.0911 36.9673 49.3113 36.9673 49.5802V52.683C36.9673 52.9523 37.2272 53.172 37.5446 53.172H39.13C39.4468 53.1725 39.7073 52.9523 39.7073 52.683ZM31.5077 52.591V49.6712C31.5077 49.3512 31.1988 49.0901 30.8217 49.0901H29.4531C29.0754 49.0901 28.7671 49.3517 28.7671 49.6712V52.591C28.7671 52.9109 29.076 53.172 29.4531 53.172H30.8217C31.1994 53.1725 31.5077 52.9109 31.5077 52.591ZM60.0605 59.2371H56.9121V5.51862C56.9121 2.47599 53.9895 0 50.3969 0H17.8075C14.2154 0 11.2923 2.4755 11.2923 5.51862V7.58795C7.70014 7.58795 4.77701 10.0634 4.77701 13.1066V59.2369L1.62859 59.2374C0.73214 59.2374 0 59.8585 0 60.6169C0 61.3762 0.733218 61.9964 1.62859 61.9964H15.6813C16.3514 62.0046 17.0596 61.9964 17.8071 61.9964H50.3993C51.1479 61.9964 51.8555 62.0046 52.5251 61.9964H60.0626C60.959 61.9964 61.6911 61.3753 61.6911 60.6169C61.6917 59.8585 60.9585 59.2374 60.062 59.2374L60.0605 59.2371ZM11.2915 59.2371H8.0339V13.1055C8.0339 11.5839 9.49518 10.3462 11.2915 10.3462V59.2371ZM45.4958 58.8405H35.4515V43.4226H43.6231C44.6561 43.4226 45.4962 44.1352 45.4962 45.0097V58.8402L45.4958 58.8405ZM33.0762 58.8405H23.0314V45.0088C23.0314 44.1344 23.8716 43.4218 24.9045 43.4218H33.0762V58.8405ZM53.6549 59.2371H48.2647V45.0094C48.2647 42.8418 46.1822 41.0779 43.6226 41.0779H24.9048C22.3451 41.0779 20.2626 42.8413 20.2626 45.0094V59.2371H14.5494V5.51862C14.5494 3.99706 16.0107 2.75931 17.8071 2.75931H50.3993C52.1957 2.75931 53.657 3.99706 53.657 5.51862V59.2371H53.6549Z" fill="#64C7CC"/>
</g>
</svg>
