<svg width="62" height="62" viewBox="0 0 62 62" fill="none" xmlns="http://www.w3.org/2000/svg">
<g id="party">
<path id="Vector" d="M53.1648 30.6457C52.1471 27.7541 50.5687 25.0911 48.5213 22.8099C47.9392 22.1628 47.3232 21.5467 46.6762 20.9649H46.671C44.3927 18.9185 41.7335 17.3413 38.8454 16.3243H38.8402C37.3377 15.7865 35.7832 15.4085 34.2014 15.1976V12.8285C34.2004 12.1671 33.9943 11.5219 33.6117 10.9822C33.2285 10.4429 32.6879 10.0353 32.0638 9.81627V1.06949C32.0638 0.479158 31.5852 0.000488281 30.995 0.000488281C30.4048 0.000488281 29.9262 0.479158 29.9262 1.06949V9.8181C29.3031 10.0386 28.7634 10.4461 28.3808 10.9849C27.9981 11.5237 27.7915 12.1675 27.7887 12.8285V15.1975C26.2108 15.4047 24.6596 15.7779 23.1599 16.3105H23.1541C20.2641 17.3274 17.6026 18.9051 15.3234 20.953C14.6764 21.5352 14.0604 22.1509 13.4787 22.798C11.4308 25.0792 9.85237 27.7422 8.83463 30.6338C7.04248 35.7072 7.04248 41.2412 8.83463 46.3145V46.3222V46.3217C9.57706 48.4149 10.6158 50.3901 11.9189 52.1874C11.5205 52.3124 11.1053 52.3778 10.6879 52.3821C10.0976 52.3821 9.61906 52.8608 9.61906 53.4511C9.61906 54.0415 10.0976 54.5201 10.6879 54.5201C11.8215 54.5201 12.909 54.9706 13.711 55.7724C14.5126 56.5746 14.963 57.6623 14.963 58.7962C14.963 59.3865 15.4416 59.8652 16.0318 59.8652C16.622 59.8652 17.1006 59.3865 17.1006 58.7962C17.1011 58.381 17.1622 57.9677 17.2824 57.5702C19.0793 58.874 21.0547 59.9129 23.147 60.655H23.1546H23.1541C28.2275 62.4485 33.7624 62.4485 38.8355 60.655C41.7265 59.6394 44.3894 58.0631 46.6706 56.0167C47.3205 55.4326 47.9389 54.8146 48.5229 54.1651C50.5689 51.8844 52.1453 49.2224 53.1617 46.3318C54.9534 41.2584 54.9534 35.7244 53.1617 30.651L53.1648 30.6457ZM51.3884 44.8983H47.0269V39.5532H52.3451C52.2578 41.3686 51.9362 43.1654 51.3884 44.8983ZM22.4443 58.083C21.0081 57.4583 19.6464 56.6761 18.3829 55.7503C18.3924 55.7407 18.401 55.7298 18.4106 55.7217C18.5838 55.5546 18.7713 55.4024 18.9707 55.2673C19.0146 55.2363 19.0604 55.2096 19.1062 55.181C19.2923 55.0626 19.487 54.959 19.6888 54.8707C19.7155 54.8588 19.7403 54.845 19.7671 54.8345C19.9918 54.7433 20.2237 54.6717 20.4608 54.6207C20.5162 54.6078 20.5729 54.5982 20.6297 54.5877L20.6292 54.5873C20.8754 54.5429 21.1255 54.52 21.3755 54.519H22.4443L22.4443 58.083ZM17.1003 48.105V47.036H22.4443V52.381H21.3755C20.2418 52.381 19.1544 51.9305 18.3523 51.1288C17.5507 50.3265 17.1003 49.2389 17.1003 48.105ZM9.64454 39.553H14.9627V44.898H10.6012C10.0534 43.1651 9.73186 41.3683 9.64454 39.553ZM10.6065 32.07H14.9627V37.415H9.64454C9.73186 35.5996 10.0535 33.8028 10.6012 32.07H10.6065ZM24.5814 18.0849C26.0081 17.6344 27.4791 17.3395 28.9687 17.2045C29.2745 17.1725 29.5961 17.1491 29.9254 17.1319V22.4488H24.5814V18.0849ZM44.8885 37.415H39.5445V32.07H44.8885V37.415ZM37.4069 37.415H32.0629V32.07H37.4069V37.415ZM24.5814 32.07H29.9254V37.415H24.5814V32.07ZM29.9254 29.932H24.5814V24.5869H29.9254V29.932ZM22.4438 37.415H17.0998V32.07H22.4438V37.415ZM17.0998 39.553H22.4438V44.898H17.0998V39.553ZM24.5814 39.553H29.9254V44.898H24.5814V39.553ZM32.0629 39.553H37.4069V44.898H32.0629V39.553ZM39.5445 39.553H44.8885V44.898H39.5445V39.553ZM44.8885 29.932H39.5445V24.5869H44.8885V29.932ZM37.4069 29.932H32.0629V24.5869H37.4069V29.932ZM22.4438 29.932H17.0998V24.5869H22.4438V29.932ZM24.5814 47.036H29.9254V52.381H24.5814V47.036ZM32.0629 47.036H37.4069V52.381H32.0629V47.036ZM39.5445 47.036H44.8885V52.381H39.5445V47.036ZM47.0261 37.415V32.07H51.3876C51.9353 33.8028 52.2569 35.5996 52.3442 37.415H47.0261ZM47.0261 29.932V24.5869H47.2398C48.6178 26.1909 49.7476 27.993 50.5917 29.932H47.0261ZM44.8885 22.4489H39.5445V18.8859C41.4831 19.7292 43.2843 20.8579 44.8885 22.2351V22.4489ZM37.4069 22.4489H32.0629V17.1316C32.3111 17.1445 32.5472 17.1646 32.7825 17.186C32.8645 17.1937 32.9523 17.198 33.0334 17.2066C34.5188 17.3412 35.985 17.6356 37.4069 18.0851L37.4069 22.4489ZM29.9254 12.8279C29.9254 12.2376 30.4039 11.7589 30.9942 11.7589C31.2823 11.7579 31.5581 11.8763 31.7561 12.0858C31.9546 12.2819 32.0649 12.5492 32.0629 12.8279V14.9892C31.7156 14.973 31.3587 14.9658 30.9942 14.9658C30.6296 14.9658 30.2727 14.9735 29.9254 14.9892V12.8279ZM22.4438 22.4489H17.0998V22.2351C18.7035 20.8569 20.5047 19.7268 22.4438 18.8826V22.4489ZM14.7485 24.5869H14.9623V29.932H11.3999C12.243 27.993 13.3715 26.1914 14.7485 24.5869ZM14.9623 47.036V48.105C14.9599 48.356 14.9355 48.6066 14.8897 48.8533C14.8792 48.9087 14.8692 48.9602 14.8568 49.0213H14.8563C14.8053 49.258 14.7337 49.4904 14.6426 49.7147C14.6321 49.7405 14.6178 49.7648 14.6073 49.7906C14.519 49.9944 14.415 50.1905 14.2952 50.3776C14.2675 50.4215 14.2408 50.4664 14.2117 50.5103H14.2122C14.0752 50.7107 13.9226 50.8988 13.7546 51.0734L13.7269 51.1001C12.8032 49.8359 12.0221 48.4725 11.3989 47.036L14.9623 47.036ZM14.2279 53.45C14.2589 53.4295 14.2814 53.4028 14.3114 53.3818C14.5992 53.1828 14.8706 52.9609 15.1226 52.718C15.1741 52.6688 15.2294 52.623 15.2767 52.5724C15.5343 52.308 15.7686 52.0222 15.9766 51.7172C15.9929 51.6938 16.0163 51.6733 16.032 51.649L16.0425 51.6628H16.043C16.513 52.3648 17.1161 52.9681 17.8179 53.4381L17.8317 53.4486C17.8069 53.4648 17.7869 53.4882 17.7635 53.5039V53.5044C17.4591 53.7134 17.1728 53.9478 16.9085 54.206C16.8593 54.2542 16.8145 54.3066 16.7663 54.3568C16.5225 54.6092 16.2992 54.8812 16.0992 55.17C16.0787 55.2 16.052 55.2225 16.032 55.2535C15.5563 54.5386 14.9432 53.9254 14.2279 53.45ZM24.5814 54.519H29.9254V59.8383C28.1104 59.751 26.314 59.4293 24.5814 58.8814V54.519ZM32.063 54.519H37.4069V58.8814C35.6744 59.4293 33.878 59.751 32.063 59.8383V54.519ZM39.5445 54.519H44.8885V54.7328C43.2848 56.1116 41.4836 57.2416 39.5445 58.0854V54.519ZM47.2398 52.381H47.0261V47.036H50.5884C49.7458 48.975 48.6168 50.777 47.2398 52.381Z" fill="#64C7CC"/>
<path id="Vector_2" d="M60.9213 13.897C59.7876 13.897 58.7001 13.4465 57.8981 12.6448C57.0965 11.8425 56.6461 10.7549 56.6461 9.62101C56.6461 9.03067 56.1675 8.552 55.5773 8.552C54.9871 8.552 54.5085 9.03067 54.5085 9.62101C54.5085 10.7549 54.0581 11.8426 53.2565 12.6448C52.4544 13.4465 51.367 13.897 50.2333 13.897C49.6431 13.897 49.1645 14.3757 49.1645 14.966C49.1645 15.5564 49.6431 16.035 50.2333 16.035C51.367 16.035 52.4545 16.4855 53.2565 17.2873C54.0581 18.0895 54.5085 19.1772 54.5085 20.311C54.5085 20.9014 54.9871 21.38 55.5773 21.38C56.1675 21.38 56.6461 20.9014 56.6461 20.311C56.6461 19.1771 57.0965 18.0895 57.8981 17.2873C58.7002 16.4855 59.7876 16.035 60.9213 16.035C61.5115 16.035 61.9901 15.5564 61.9901 14.966C61.9901 14.3757 61.5115 13.897 60.9213 13.897ZM55.5773 16.7695C55.1021 16.0546 54.4889 15.4414 53.7741 14.966C54.4889 14.4907 55.102 13.8775 55.5773 13.1625C56.0525 13.8774 56.6657 14.4907 57.3804 14.966C56.6657 15.4413 56.0526 16.0546 55.5773 16.7695Z" fill="#64C7CC"/>
<path id="Vector_3" d="M11.7567 7.48303C12.3469 7.48303 12.8255 7.00436 12.8255 6.41402C12.8255 5.82369 12.3469 5.34502 11.7567 5.34502C10.623 5.34502 9.53559 4.89451 8.73357 4.09276C7.93197 3.29053 7.48155 2.20288 7.48155 1.069C7.48155 0.478669 7.00298 0 6.41276 0C5.82254 0 5.34397 0.478669 5.34397 1.069C5.34397 2.20291 4.89355 3.29058 4.09195 4.09276C3.28988 4.89451 2.20245 5.34502 1.06879 5.34502C0.478575 5.34502 0 5.82369 0 6.41402C0 7.00436 0.478575 7.48303 1.06879 7.48303C2.20247 7.48303 3.28993 7.93354 4.09195 8.73529C4.89355 9.53752 5.34397 10.6252 5.34397 11.759C5.34397 12.3494 5.82254 12.828 6.41276 12.828C7.00298 12.828 7.48155 12.3494 7.48155 11.759C7.48155 10.6251 7.93197 9.53747 8.73357 8.73529C9.53564 7.93354 10.6231 7.48303 11.7567 7.48303ZM6.41276 8.21749C5.93753 7.50259 5.3244 6.88936 4.60962 6.41399C5.32438 5.93867 5.93748 5.32541 6.41276 4.61049C6.88799 5.32539 7.50112 5.93862 8.21591 6.41399C7.50115 6.88931 6.88804 7.50256 6.41276 8.21749Z" fill="#64C7CC"/>
</g>
</svg>
