<svg width="98" height="125" viewBox="0 0 98 125" fill="none" xmlns="http://www.w3.org/2000/svg">
<g id="schit">
<g id="Group">
<path id="Vector" d="M95.5815 24.7915L49.7375 0.425136C48.7326 -0.203043 47.4771 -0.0768823 46.3461 0.425136L1.88364 24.7915C0.753445 25.4197 0 26.5499 0 27.9315V59.8339C0 86.5867 15.8254 110.702 40.3176 121.504L46.4722 124.142C46.9742 124.393 47.3519 124.393 47.8539 124.393C48.3559 124.393 48.8588 124.268 49.2355 124.142L56.1437 121.127C81.1381 110.577 97.3406 86.3358 97.3406 59.2062L97.3388 27.9318C97.465 26.6754 96.7115 25.42 95.5804 24.7918L95.5815 24.7915ZM90.4325 30.0667V59.2059C90.4325 83.4467 75.989 105.176 53.6317 114.596L47.98 116.982L43.206 114.971C21.3514 105.426 7.15884 83.6971 7.15884 59.8331V30.0659L48.1044 7.58348L90.4325 30.0667ZM26.8789 62.0947C26.2508 61.3413 25.9993 60.4617 25.9993 59.4567C26.1246 58.4518 26.5013 57.6983 27.2557 57.0701C28.7626 55.8137 31.0239 55.9399 32.2792 57.4468L42.076 68.8766L67.4472 48.4036C68.2007 47.7754 69.0803 47.524 70.0853 47.6501C70.9649 47.7754 71.8436 48.1521 72.4719 48.9065C73.1001 49.66 73.3515 50.5396 73.2254 51.5445C73.1001 52.4242 72.7234 53.3029 71.969 53.9312L43.8346 76.6648C43.2064 77.1668 42.453 77.4182 41.5743 77.4182C40.5693 77.4182 39.5645 77.0415 38.9362 76.1619L26.8789 62.0947Z" fill="#64C7CC"/>
</g>
</g>
</svg>
