<svg width="97" height="124" viewBox="0 0 97 124" fill="none" xmlns="http://www.w3.org/2000/svg">
<g id="sparkles">
<g id="Group">
<path id="Vector" d="M76.6128 87.1339C76.6128 85.6233 77.839 84.3972 79.3495 84.3972C80.8601 84.3972 82.0863 85.6234 82.0863 87.1339V90.635H85.5874C87.0979 90.635 88.3241 91.8612 88.3241 93.3717C88.3241 94.8823 87.0979 96.1085 85.5874 96.1085H82.0863V99.6096C82.0863 101.12 80.8601 102.346 79.3495 102.346C77.839 102.346 76.6128 101.12 76.6128 99.6096V96.1085H73.1117C71.6011 96.1085 70.375 94.8823 70.375 93.3717C70.375 91.8612 71.6011 90.635 73.1117 90.635H76.6128V87.1339ZM40.5049 1.92704L42.8352 9.51138C43.1644 10.5858 43.7112 11.5038 44.4316 12.2271C45.1569 12.9495 46.0749 13.4943 47.1474 13.8236L54.7317 16.1519C56.1716 16.5928 56.9789 18.1214 56.5381 19.5614C56.2633 20.4584 55.5657 21.1111 54.7317 21.3678L47.1474 23.698C46.0748 24.0273 45.1568 24.5721 44.4316 25.2945C43.7093 26.0197 43.1644 26.9377 42.8352 28.0102L40.5049 35.5945C40.0641 37.0345 38.5354 37.8418 37.0954 37.4009C36.1984 37.1261 35.5457 36.4285 35.2891 35.5945L32.9607 28.0102C32.6344 26.9453 32.0866 26.0273 31.3576 25.2991C30.6324 24.5739 29.7125 24.0242 28.6465 23.6979L21.0641 21.3676C19.6242 20.9268 18.8169 19.3981 19.2578 17.9581C19.5326 17.0611 20.2301 16.4084 21.0641 16.1518L28.6465 13.8234C29.7134 13.4971 30.6323 12.9475 31.3576 12.2222C32.0847 11.4951 32.6344 10.5771 32.9607 9.51113L35.2891 1.92679C35.7299 0.48685 37.2586 -0.320441 38.6985 0.120422C39.5955 0.395243 40.2482 1.09305 40.5049 1.92704ZM40.5727 16.0861C39.4142 14.9257 38.5077 13.525 37.899 11.9276C37.2863 13.5355 36.3798 14.9382 35.2262 16.091C34.0745 17.2427 32.6688 18.1493 31.0629 18.76C32.6689 19.3727 34.0744 20.2792 35.2262 21.4311C36.3799 22.5847 37.2864 23.9875 37.899 25.5964C38.5078 23.9971 39.4133 22.5963 40.568 21.4406C41.7351 20.2755 43.134 19.3708 44.7333 18.76C43.134 18.1512 41.7342 17.2457 40.5729 16.0863L40.5727 16.0861ZM32.2565 65.7323L36.1679 78.4657C36.8092 80.5583 37.8837 82.3562 39.3151 83.7884C40.7465 85.2198 42.5453 86.2943 44.6378 86.9355L57.3712 90.8461C58.8112 91.2869 59.6185 92.8156 59.1776 94.2556C58.9028 95.1526 58.2052 95.8053 57.3712 96.0619L44.6378 99.9734C42.5452 100.615 40.7473 101.689 39.3151 103.121C37.8675 104.475 36.7445 106.564 36.1679 108.443L32.2565 121.177C31.8156 122.617 30.2869 123.424 28.847 122.983C27.95 122.708 27.2973 122.011 27.0406 121.177L23.1301 108.443C22.485 106.346 21.4124 104.546 19.9878 103.116C18.5574 101.691 16.7576 100.617 14.6602 99.9734L1.92679 96.0619C0.48685 95.6211 -0.320441 94.0924 0.120422 92.6524C0.395243 91.7555 1.0928 91.1027 1.92679 90.8461L14.6602 86.9355C16.7576 86.2905 18.5573 85.2179 19.9878 83.7933C21.4144 82.3572 22.4888 80.5585 23.1301 78.4657L27.0406 65.7323C27.4814 64.2923 29.0101 63.485 30.4501 63.9259C31.3471 64.2007 31.9998 64.8983 32.2565 65.7323ZM30.953 80.0689L29.6495 75.8264L28.347 80.0689C27.4337 83.0453 25.8992 85.6093 23.8516 87.6562C21.7895 89.7068 19.2292 91.2403 16.2643 92.1515L12.0218 93.4541L16.2643 94.7576C19.2292 95.6689 21.7903 97.2024 23.8421 99.2529C25.9023 101.315 27.4358 103.875 28.347 106.84L29.6495 111.083L30.953 106.84C31.8433 103.946 33.3252 101.437 35.3025 99.4095C37.3073 97.2491 40.2348 95.6174 43.0356 94.7576L47.2781 93.4541L43.0356 92.1515C40.0592 91.2383 37.4952 89.7038 35.4483 87.6562C33.4015 85.6093 31.8661 83.0443 30.953 80.0689ZM74.277 25.8179L77.4977 36.3012C78.0053 37.9521 78.8489 39.3663 79.9635 40.4856C81.0914 41.604 82.5085 42.4485 84.1498 42.9534L94.6312 46.1721C96.0711 46.6129 96.8784 48.1416 96.4375 49.5816C96.1627 50.4786 95.4652 51.1313 94.6312 51.3879L84.1498 54.6066C82.5085 55.1105 81.0914 55.9578 79.9684 57.08C78.8147 58.1727 77.9597 59.7511 77.4979 61.2595L74.2773 71.7409C73.8364 73.1808 72.3077 73.9881 70.8678 73.5472C69.9708 73.2724 69.3181 72.5748 69.0614 71.7409L65.8427 61.2595C65.3389 59.6182 64.4934 58.2011 63.3703 57.0781C62.2472 55.9551 60.8319 55.1104 59.1908 54.6057L48.7075 51.387C47.2676 50.9461 46.4603 49.4174 46.9012 47.9775C47.176 47.0805 47.8735 46.4278 48.7075 46.1711L59.1908 42.9524C60.8321 42.4485 62.2483 41.6031 63.3703 40.48C64.4934 39.3568 65.3379 37.9416 65.8427 36.3005L69.0614 25.8172C69.5023 24.3773 71.031 23.57 72.4709 24.0108C73.3679 24.2857 74.0206 24.9832 74.2773 25.8172L74.277 25.8179ZM72.2817 37.9035L71.6691 35.9129L71.0584 37.9035C70.2826 40.4294 68.9791 42.6089 67.2385 44.3485C65.4979 46.089 63.3184 47.3925 60.7935 48.1684L58.8049 48.7791L60.7935 49.3898C63.3194 50.1656 65.4989 51.4691 67.2385 53.2097C68.9771 54.9483 70.2806 57.1298 71.0584 59.6566L71.6691 61.6472L72.2817 59.6566C73.0957 57.0039 74.2436 55.2346 76.0997 53.2117C77.8402 51.4711 80.0207 50.1657 82.5466 49.3898L84.5352 48.7791L82.5466 48.1684C80.0197 47.3916 77.8385 46.0872 76.0997 44.3485C74.3582 42.5955 73.0537 40.4209 72.2817 37.9035ZM11.4472 47.2008C9.93668 47.2008 8.71051 45.9746 8.71051 44.464C8.71051 42.9535 9.9367 41.7273 11.4472 41.7273H14.9483V38.2272C14.9483 36.7166 16.1745 35.4904 17.6851 35.4904C19.1956 35.4904 20.4218 36.7166 20.4218 38.2272V41.7273H23.9249C25.4354 41.7273 26.6616 42.9535 26.6616 44.464C26.6616 45.9746 25.4354 47.2008 23.9249 47.2008H20.4218V50.7038C20.4218 52.2144 19.1956 53.4405 17.6851 53.4405C16.1745 53.4405 14.9483 52.2144 14.9483 50.7038V47.2008H11.4472Z" fill="#64C7CC"/>
</g>
</g>
</svg>
