<svg width="127" height="121" viewBox="0 0 127 121" fill="none" xmlns="http://www.w3.org/2000/svg">
<g id="znachok">
<rect width="125.23" height="120.025" transform="translate(0.885986)" fill="white"/>
<g id="Group">
<path id="Vector" d="M63.5 15.9374C51.811 15.9374 40.5995 20.5811 32.3335 28.8468C24.0678 37.1115 19.424 48.3231 19.424 60.0133C19.424 71.7035 24.0678 82.9138 32.3335 91.1797C40.5982 99.4454 51.8098 104.089 63.5 104.089C75.1902 104.089 86.4005 99.4454 94.6665 91.1797C102.932 82.9151 107.576 71.7035 107.576 60.0133C107.563 48.3284 102.915 37.1248 94.6524 28.8622C86.3897 20.5995 75.1861 15.9517 63.5013 15.9386L63.5 15.9374ZM63.5 97.3747C53.5911 97.3747 44.0877 93.438 37.0796 86.4319C30.0735 79.4248 26.1368 69.9215 26.1368 60.0115C26.1368 50.1016 30.0735 40.5992 37.0796 33.5911C44.0867 26.585 53.59 22.6483 63.5 22.6483C73.4099 22.6483 82.9123 26.585 89.9204 33.5911C96.9265 40.5982 100.863 50.1016 100.863 60.0115C100.852 69.9174 96.9116 79.4138 89.9074 86.4191C82.9031 93.4244 73.4069 97.3639 63.4997 97.3749L63.5 97.3747ZM82.5019 50.6403L61.4573 77.9532C60.822 78.7783 59.8402 79.2617 58.7992 79.2617H58.7922C57.7494 79.2587 56.7665 78.7723 56.1333 77.9442L44.4914 62.7213V62.7203C43.3976 61.2469 43.6903 59.1692 45.1476 58.0545C46.605 56.9399 48.6878 57.2025 49.8224 58.6439L58.8084 70.3937L77.1848 46.5463V46.5453C77.7192 45.8151 78.5253 45.3306 79.4213 45.2028C80.3163 45.0749 81.2263 45.3147 81.9425 45.867C82.6597 46.4184 83.1232 47.2375 83.2281 48.1355C83.3339 49.0345 83.0712 49.9375 82.5019 50.6397L82.5019 50.6403ZM119.657 71.4532C122.685 68.2997 126.116 64.7256 126.116 60.012C126.116 55.2992 122.685 51.7243 119.657 48.5708C117.928 47.0366 116.504 45.1916 115.457 43.13C115.052 40.7417 115.106 38.2975 115.616 35.9281C116.183 31.6809 116.825 26.8661 114.157 23.2004C111.465 19.5005 106.662 18.6264 102.422 17.8583C100.041 17.6175 97.7276 16.9273 95.6049 15.8236C93.9298 14.1624 92.5834 12.1996 91.6373 10.038C89.5866 6.21433 87.2633 1.87921 82.855 0.44772C78.6137 -0.930734 74.2745 1.14694 70.4449 2.9819C68.3063 4.22452 65.949 5.04459 63.5008 5.3962C61.0525 5.04459 58.6951 4.22452 56.5566 2.9819C52.7308 1.14694 48.3878 -0.929762 44.1486 0.44772C39.7395 1.88013 37.4141 6.21433 35.3635 10.038H35.3645C34.4195 12.1996 33.0731 14.1624 31.3978 15.8236C29.2752 16.9273 26.9617 17.6166 24.5815 17.8563C20.3413 18.6274 15.5367 19.5015 12.8437 23.2012C10.1766 26.8671 10.819 31.6817 11.3864 35.9289V35.9279C11.8958 38.2972 11.9497 40.7415 11.5452 43.1298C10.4983 45.1915 9.07393 47.0364 7.34482 48.5707C4.31716 51.7241 0.885986 55.299 0.885986 60.0118C0.885986 64.7246 4.31716 68.2995 7.34482 71.453C9.07388 72.9873 10.4983 74.8323 11.5452 76.8938C11.9497 79.2822 11.8958 81.7263 11.3864 84.0958C10.819 88.3429 10.1767 93.1578 12.8447 96.8234C15.5366 100.523 20.3402 101.397 24.5797 102.166C26.961 102.406 29.2744 103.097 31.3971 104.2C33.0722 105.861 34.4186 107.824 35.3647 109.986C37.4154 113.81 39.7408 118.145 44.148 119.576C48.3923 120.955 52.7295 118.877 56.5581 117.042H56.5571C58.6957 115.799 61.053 114.979 63.5012 114.628C65.9495 114.979 68.3069 115.799 70.4454 117.042C73.3611 118.717 76.6066 119.735 79.9567 120.025C80.9396 120.029 81.9175 119.878 82.8534 119.577C87.2625 118.145 89.5879 113.81 91.6385 109.987H91.6375C92.5825 107.825 93.9289 105.861 95.6041 104.2C97.7268 103.096 100.04 102.407 102.42 102.168C106.661 101.397 111.465 100.523 114.158 96.8236C116.825 93.1576 116.183 88.343 115.616 84.0959C115.106 81.7275 115.052 79.2833 115.457 76.894C116.504 74.8333 117.928 72.9875 119.657 71.4532ZM114.814 66.8033C112.33 69.0178 110.369 71.7567 109.073 74.8222C108.287 78.1595 108.249 81.6296 108.962 84.9828C109.383 88.1293 109.816 91.3807 108.73 92.8728C107.619 94.4001 104.365 94.9925 101.22 95.5629H101.221C97.8335 95.9106 94.5652 97.0073 91.6534 98.7724C89.1052 100.981 87.0794 103.727 85.7221 106.813C84.1978 109.655 82.6226 112.595 80.7796 113.191C79.0905 113.746 76.1689 112.341 73.3471 110.987C70.3324 109.248 66.97 108.198 63.5021 107.915C60.0341 108.198 56.6706 109.247 53.6571 110.987C50.8342 112.339 47.9134 113.733 46.2224 113.191C44.3815 112.595 42.8053 109.656 41.282 106.813C39.9235 103.727 37.8979 100.981 35.3497 98.7724C32.4379 97.0074 29.1696 95.9107 25.7824 95.5629C22.6369 94.9906 19.3837 94.3992 18.2739 92.8728C17.1881 91.3805 17.6216 88.1291 18.0421 84.9828C18.7553 81.6296 18.7174 78.1593 17.9312 74.8222C16.6347 71.7567 14.674 69.0178 12.1897 66.8033C9.93123 64.4539 7.59886 62.0245 7.59886 60.0118C7.59886 57.999 9.93125 55.5697 12.1876 53.2202C14.6719 51.0057 16.6327 48.2668 17.9292 45.2013C18.7153 41.864 18.7533 38.3939 18.0401 35.0407C17.6196 31.8942 17.186 28.6428 18.2718 27.1507C19.3826 25.6234 22.6369 25.031 25.7824 24.4606H25.7814C29.1686 24.1129 32.4369 23.0162 35.3487 21.2511C37.8968 19.0426 39.9227 16.2966 41.28 13.2102C42.8043 10.3674 44.3795 7.42872 46.2224 6.83239C47.9106 6.27501 50.8332 7.68244 53.655 9.03693C56.6696 10.776 60.032 11.8258 63.5 12.1086C66.968 11.8259 70.3314 10.7761 73.345 9.03693C76.1689 7.68244 79.0866 6.288 80.7797 6.83239C82.6206 7.42872 84.1968 10.3674 85.7201 13.2102C87.0786 16.2966 89.1042 19.0427 91.6524 21.2511C94.5642 23.0161 97.8325 24.1128 101.22 24.4606C104.365 25.0329 107.618 25.6243 108.728 27.1507C109.814 28.643 109.381 31.8944 108.96 35.0407C108.247 38.3939 108.285 41.8642 109.071 45.2013C110.367 48.2668 112.328 51.0058 114.812 53.2202C117.069 55.5696 119.401 57.999 119.401 60.0118C119.401 62.0245 117.071 64.4538 114.814 66.8033H114.814Z" fill="#64C7CC"/>
</g>
</g>
</svg>
